PathFileType	4	(X/Y/Z)	Run_200 02
DataRate	CameraRate	NumFrames	NumMarkers	Units	OrigDataRate	OrigDataStartFrame	OrigNumFrames
120	120	7	41	mm	120	490	125
Frame#	Time	LASI			RASI			LPSI			RPSI			RTH1			RTH3			LTH1			LTH2			LTH3			RTB1			RTB2			RTB3			LTB1			LTB2			LTB3			RCAL			RTOE			RMT5			LCAL			LTOE			LMT5			LACR			RACR			CLAV			C7			RUA1			RUA2			RUA3			RLEL			RMEL			LUA1			LUA2			LUA3			LLEL			LMEL			RFAsuperior			RFAradius			RFAulna			LFAsuperior			LFAradius			LFAulna		
		X1	Y1	Z1	X2	Y2	Z2	X3	Y3	Z3	X4	Y4	Z4	X5	Y5	Z5	X6	Y6	Z6	X7	Y7	Z7	X8	Y8	Z8	X9	Y9	Z9	X10	Y10	Z10	X11	Y11	Z11	X12	Y12	Z12	X13	Y13	Z13	X14	Y14	Z14	X15	Y15	Z15	X16	Y16	Z16	X17	Y17	Z17	X18	Y18	Z18	X19	Y19	Z19	X20	Y20	Z20	X21	Y21	Z21	X22	Y22	Z22	X23	Y23	Z23	X24	Y24	Z24	X25	Y25	Z25	X26	Y26	Z26	X27	Y27	Z27	X28	Y28	Z28	X29	Y29	Z29	X30	Y30	Z30	X31	Y31	Z31	X32	Y32	Z32	X33	Y33	Z33	X34	Y34	Z34	X35	Y35	Z35	X36	Y36	Z36	X37	Y37	Z37	X38	Y38	Z38	X39	Y39	Z39	X40	Y40	Z40	X41	Y41	Z41	

490	  4.083333	935.085774	960.519660	-381.864300	915.932360	970.889763	-148.983055	770.708085	993.716886	-329.814446	751.260501	998.689449	-232.485495	874.350394	805.324065	-91.886558	942.042301	557.014873	-154.756263	902.879179	771.185048	-444.702104	973.958940	670.800542	-435.411367	916.929227	554.623873	-424.664263	978.449832	335.067760	-238.687155	926.477771	284.210412	-176.900957	916.936719	228.222299	-250.467340	864.434493	376.193049	-341.934069	768.983669	388.689007	-426.931906	696.264828	318.717977	-362.218364	753.530223	106.601788	-258.648956	957.399928	 70.982420	-286.613115	938.279548	 60.391237	-191.425125	529.872398	361.662250	-345.644125	595.408429	164.930541	-358.109313	571.455793	185.298541	-443.902359	936.923467	1424.540679	-449.461738	889.959671	1401.330379	-55.917606	975.196357	1406.159460	-224.832431	861.161183	1475.949799	-270.054973	816.080279	1269.135272	-23.513359	744.879254	1270.685990	-49.000576	766.701986	1194.301888	 -4.428340	727.917351	1133.693788	  9.128229	701.213294	1119.405909	-67.123559	864.198232	1301.227802	-509.670695	790.583349	1266.130361	-502.577575	848.130260	1211.987304	-524.534759	792.580063	1148.949208	-552.592738	745.754990	1152.288801	-480.768273	826.557404	1053.523770	 -7.272835	908.948173	990.845395	-70.687576	873.292873	942.665414	-33.116834	886.740052	1064.238029	-512.865763	960.952516	1031.016621	-415.485388	948.062005	982.912976	-464.010673	
491	  4.091667	933.850981	961.604778	-382.281924	914.860515	971.388027	-148.406052	769.709286	994.813730	-329.022884	750.077095	1000.022976	-231.347862	870.801231	805.612727	-91.535062	934.313000	556.246072	-154.040765	902.952320	772.742352	-444.453266	979.612808	674.502871	-435.904416	926.400297	557.236519	-424.816855	966.005757	333.319494	-238.801358	913.496602	283.307075	-176.803222	902.752877	227.322781	-250.126257	877.071635	377.415338	-342.674743	782.246791	388.164843	-426.903462	710.721876	317.053062	-361.891493	736.887359	107.253096	-258.413769	940.623868	 70.929259	-286.396696	921.416389	 60.243897	-191.280181	542.146558	355.538441	-346.252500	615.497242	161.506892	-358.942902	591.447359	181.313904	-444.867576	934.521445	1425.722188	-449.430280	893.185247	1402.604862	-55.754526	975.394415	1407.145017	-225.965268	861.044823	1477.377941	-269.341463	822.076825	1269.031729	-22.623933	750.715485	1268.268233	-47.823778	775.209624	1192.816045	 -3.128912	738.583005	1131.119520	 10.987199	711.277757	1116.115083	-65.031661	859.345027	1304.331053	-509.863354	785.222127	1270.865861	-501.643045	841.549247	1215.841174	-525.186088	784.440661	1154.007217	-553.330831	738.911045	1157.814469	-480.829146	839.742847	1054.375025	 -7.391435	922.841227	994.271131	-72.659370	889.787409	944.858558	-34.077091	876.354787	1065.781710	-515.004033	951.876372	1030.035668	-419.240031	935.613554	982.443376	-467.135899	
492	  4.100000	932.728466	963.491619	-382.676738	913.910633	972.186693	-148.332841	768.932192	996.804003	-328.477044	749.290770	1002.176128	-230.588040	867.054141	806.711716	-91.429829	925.535571	556.056653	-153.782726	903.870387	775.364269	-444.146677	984.737931	679.520613	-436.033357	935.297766	561.172972	-424.646662	952.982079	332.102625	-238.695707	899.586599	283.251839	-176.560881	888.526515	226.820457	-249.640847	889.455410	379.225565	-343.391423	795.297916	387.876420	-426.508273	725.557894	315.178675	-361.390914	720.218908	107.977436	-258.113211	923.833825	 70.897298	-286.145767	904.546759	 60.128829	-191.096485	554.677160	348.269698	-346.852175	636.510628	157.522750	-359.366048	612.266260	176.561438	-445.602075	931.934256	1427.967147	-449.506107	896.763614	1405.128121	-55.632554	975.583726	1409.135280	-227.155273	860.838071	1479.530975	-268.707791	828.267234	1270.190806	-22.001182	756.641612	1267.922110	-46.152425	783.217335	1193.165927	 -1.932818	748.557440	1130.518254	 12.529578	721.149337	1114.964596	-63.443863	854.475527	1308.689682	-510.381789	779.845214	1276.997785	-501.918893	834.878032	1220.824216	-526.119746	776.008004	1160.419207	-554.425144	731.229414	1165.007729	-481.342519	852.199341	1057.340947	 -7.757131	936.395819	1000.476571	-74.822943	905.738112	949.590625	-35.992824	865.757543	1069.505254	-517.390656	942.465734	1031.907071	-422.736494	923.420812	984.829089	-469.990474	
493	  4.108333	931.736779	966.302998	-382.897986	913.167523	973.557780	-148.605308	768.359000	999.792398	-328.004445	748.854600	1005.207217	-230.079078	863.391972	808.807165	-91.577856	915.802135	556.501649	-153.965039	905.608265	779.034765	-443.831171	989.303293	685.507028	-435.866573	943.364897	566.147996	-424.073659	939.150905	331.471357	-238.589319	884.826861	283.786002	-176.471407	873.866604	226.823826	-249.221267	901.520082	381.585244	-344.042175	808.069923	387.822598	-425.815763	740.946585	313.073099	-361.111653	703.551114	108.793905	-257.773331	907.069565	 70.907430	-285.827008	887.698273	 60.064095	-190.882472	567.531422	339.900713	-347.367068	658.349033	153.124366	-359.359684	633.768784	171.124414	-445.916564	929.147694	1431.261703	-449.748085	900.491338	1408.820883	-55.623663	975.779587	1412.101529	-228.393185	860.487280	1482.323380	-268.160383	834.549878	1272.569099	-21.563291	762.473754	1269.443300	-43.896664	790.813809	1195.093504	 -0.818488	757.914245	1131.576976	 13.837113	730.471358	1115.604775	-62.122667	849.604010	1314.209651	-511.207954	774.493679	1284.359640	-503.110486	828.100071	1226.801331	-527.359281	767.474647	1168.033281	-555.790925	723.001737	1173.565241	-482.297200	863.885378	1062.053494	 -8.362162	949.447278	1009.168672	-76.929355	920.908360	956.536254	-38.684352	855.317414	1075.305028	-519.888207	932.682976	1036.218905	-425.763038	911.785390	989.696908	-472.661258	
494	  4.116667	930.913518	970.062966	-382.982822	912.650179	975.760404	-148.982748	767.960244	1003.740971	-327.453919	748.634182	1009.122647	-229.639031	860.136290	811.816998	-91.967948	905.423223	557.671283	-154.434151	907.884577	783.703908	-443.562004	993.354781	692.128768	-435.459672	950.471246	571.878562	-423.095680	924.353837	331.569732	-238.753859	869.312399	284.792797	-176.763330	858.418843	227.458341	-249.048594	913.205220	384.448035	-344.585722	820.492815	387.936649	-424.882117	756.835374	310.785803	-361.305495	686.916225	109.756546	-257.405266	890.366649	 70.957347	-285.472737	870.889667	 60.030882	-190.703487	580.755755	330.487423	-347.709083	680.960098	148.485837	-358.931337	655.881305	165.130546	-445.640080	926.160321	1435.535336	-450.078699	904.150441	1413.580095	-55.782361	975.993161	1415.993741	-229.703300	860.041051	1485.794081	-267.686542	840.735428	1276.142503	-21.209507	768.060780	1272.493477	-41.211222	798.120131	1198.317382	  0.173575	766.740963	1134.044126	 14.972960	739.121385	1117.682832	-60.924894	844.753339	1320.794856	-512.224058	769.217688	1292.747916	-504.853947	821.286662	1233.720197	-528.803183	759.043363	1176.733028	-557.307780	714.699755	1183.177432	-483.652797	874.788529	1068.279662	 -9.224195	961.800020	1019.889192	-78.869652	935.168725	965.343515	-41.851270	845.330802	1082.957953	-522.312863	922.782125	1042.586469	-428.416192	900.886078	996.568674	-475.231288	
495	  4.125000	930.306699	974.694620	-383.021202	912.226735	978.941123	-149.223247	767.747847	1008.534244	-326.785724	748.432967	1013.929277	-229.082910	857.495474	815.397083	-92.591957	894.685664	559.622156	-155.082461	910.336209	789.258607	-443.400221	996.969105	699.175109	-434.830705	956.641354	578.165439	-421.808441	908.835770	332.460990	-239.288124	853.357164	286.264997	-177.422698	842.290273	228.719341	-249.153835	924.458948	387.756160	-344.985232	832.516149	388.144666	-423.733947	772.867595	308.417515	-361.800358	670.369115	110.984842	-256.970188	873.728574	 71.028412	-285.167764	854.127426	 60.007831	-190.630246	594.380405	320.110503	-347.804297	704.333474	143.784449	-358.122711	678.659896	158.812207	-444.809984	922.996672	1440.680584	-450.364395	907.602135	1419.260917	-56.134349	976.222919	1420.730782	-231.132605	859.584948	1489.984843	-267.287782	846.654013	1280.838680	-20.883071	773.348537	1276.708097	-38.369424	805.225485	1202.601107	  1.013474	775.090850	1137.733934	 16.012995	747.167992	1120.940907	-59.776320	839.944353	1328.338816	-513.248945	764.061807	1301.951156	-506.781484	814.584918	1241.565902	-530.286553	750.869540	1186.392899	-558.818616	706.746945	1193.607757	-485.256808	884.894536	1075.870189	-10.334300	973.198789	1032.066303	-80.779681	948.433515	975.672578	-45.202271	835.953791	1092.123740	-524.536467	913.203085	1050.601900	-430.940686	890.800245	1004.956775	-477.773908	
496	  4.133333	929.959002	980.074899	-383.069126	911.732906	983.082720	-149.157965	767.767538	1014.050041	-326.045297	748.111518	1019.611069	-228.258316	855.475869	819.183835	-93.419297	883.714145	562.353197	-155.930194	912.701167	795.501833	-443.388148	1000.212634	706.549501	-433.988592	962.022065	584.889283	-420.343103	893.358417	334.027553	-240.081511	837.667099	288.188090	-178.211824	826.225171	230.427501	-249.416780	935.246339	391.439353	-345.205882	844.126249	388.412306	-422.378906	788.547745	306.047132	-361.948976	654.013279	112.675897	-256.399945	857.133973	 71.116691	-284.984124	837.422653	 60.013129	-190.672289	608.453905	308.881399	-347.609411	728.465074	139.181665	-357.002404	702.223735	152.467376	-443.660626	919.712001	1446.569724	-450.524053	910.814024	1425.689977	-56.681079	976.460590	1426.199817	-232.711829	859.172063	1494.851330	-266.974769	852.218391	1286.516116	-20.574715	778.371936	1281.793240	-35.607534	812.149015	1207.779653	  1.726093	782.974219	1142.496756	 17.055015	754.662205	1125.256840	-58.590707	835.188337	1336.719337	-514.119160	759.069042	1311.793274	-508.564779	808.145179	1250.278725	-531.654783	743.035344	1196.857523	-560.170494	699.325047	1204.710940	-486.829010	894.184481	1084.663084	-11.621198	983.381918	1045.125898	-82.935320	960.617242	987.187743	-48.549162	827.210140	1102.398298	-526.529917	904.302953	1059.797170	-433.485988	881.534194	1014.427586	-480.325143	
